<?xml version="1.0" standalone="no"?>
<!DOCTYPE svg PUBLIC "-//W3C//DTD SVG 20010904//EN"
 "http://www.w3.org/TR/2001/REC-SVG-20010904/DTD/svg10.dtd">
<svg version="1.0" xmlns="http://www.w3.org/2000/svg"
 width="87.000000pt" height="87.000000pt" viewBox="0 0 87.000000 87.000000"
 preserveAspectRatio="xMidYMid meet">
<metadata>
Created by potrace 1.14, written by Peter Selinger 2001-2017
</metadata>
<g transform="translate(0.000000,87.000000) scale(0.100000,-0.100000)"
fill="#000000" stroke="none">
<path d="M270 745 c-7 -23 -16 -33 -23 -28 -7 4 -32 8 -57 9 -25 2 -37 0 -27
-2 9 -3 17 -10 17 -16 0 -10 -53 -2 -78 11 -26 14 -69 0 -85 -29 -18 -29 -24
-105 -8 -96 5 4 8 -6 6 -20 -1 -15 2 -43 7 -62 l10 -36 18 24 c9 12 19 18 21
12 3 -8 15 -6 37 5 38 18 42 16 49 -30 3 -23 -3 -45 -17 -70 -22 -37 -22 -37
-3 -82 10 -25 21 -45 26 -45 4 0 7 -8 7 -17 0 -9 3 -13 7 -10 12 12 53 -44 53
-72 0 -15 -9 -36 -20 -46 -23 -21 -26 -41 -7 -47 11 -4 23 -4 90 1 10 0 25 14
34 29 15 27 19 28 53 19 29 -8 63 -5 161 16 68 14 133 29 144 32 15 5 24 -1
38 -25 17 -28 17 -31 2 -47 -21 -21 -5 -33 45 -33 74 0 99 44 94 168 -2 62 -7
79 -35 123 -18 28 -50 62 -71 76 -34 23 -38 30 -34 59 2 18 0 31 -5 29 -4 -3
-12 9 -18 27 -6 18 -22 47 -36 63 l-24 30 14 -55 c20 -76 19 -117 -2 -124 -31
-9 -136 -20 -189 -19 -71 2 -92 14 -89 53 1 17 -3 37 -11 44 -8 9 -12 29 -9
52 2 22 4 39 5 39 1 0 4 26 6 58 4 57 -3 70 -26 42 -17 -21 -30 -19 -30 5 0
33 -28 23 -40 -15z"/>
</g>
</svg>
